<svg xmlns="http://www.w3.org/2000/svg" viewBox="0 0 329.082 327.782"><g transform="translate(-302.947 -201.075)"><ellipse cx="463.088" cy="368.291" rx="156.551" ry="155.933" fill="none"/><path d="M467.487 201.075l164.541 163.891-164.54 163.89-164.541-163.89z"/><path d="M407.426 263.911L306.321 365.035l101.105 101.123v-29.153l-72.218-72.881 72.218-72.882zM461.59 298.833v17.983h47.844v-17.983zM461.59 334.799v17.983h47.844v-17.983zM527.187 263.911l101.105 101.124-101.105 101.123v-29.153l72.218-72.881-72.218-72.882z" fill="#c83737"/><path d="M461.59 231.396l-50.553 88.117-9.93-9.89-16.249 16.184 26.18 30.571 27.983-36.865v159.15l22.569 22.48V231.395M550.375 319.502l-26.973-1.306-43.156 151.476h24.815z" fill="#c83737"/></g></svg>